<svg width="88" height="88" viewBox="0 0 88 88" fill="none" xmlns="http://www.w3.org/2000/svg">
<rect x="1" y="1" width="86" height="86" rx="43" fill="white"/>
<path d="M30.4367 52.6667C30.675 51.605 30.2417 50.0884 29.4834 49.33L24.2184 44.065C22.5717 42.4184 21.9217 40.6634 22.3984 39.1467C22.8967 37.63 24.435 36.59 26.7317 36.2L33.4917 35.0734C34.4667 34.9 35.6584 34.0334 36.1134 33.145L39.84 25.67C40.9234 23.525 42.3967 22.3334 44 22.3334C45.6034 22.3334 47.0767 23.525 48.16 25.67L51.8867 33.145C52.1684 33.7084 52.7534 34.25 53.3817 34.6184L30.0467 57.9534C29.7434 58.2567 29.2234 57.975 29.31 57.5417L30.4367 52.6667Z" fill="url(#paint0_linear_147_1241)"/>
<path d="M58.5167 49.33C57.7367 50.11 57.3034 51.605 57.5634 52.6667L59.0584 59.1884C59.6867 61.8967 59.2967 63.9334 57.9534 64.9084C57.4117 65.2984 56.7617 65.4934 56.0034 65.4934C54.8984 65.4934 53.5984 65.0817 52.1684 64.2367L45.82 60.4667C44.8234 59.8817 43.1767 59.8817 42.18 60.4667L35.8317 64.2367C33.4267 65.645 31.3684 65.8834 30.0467 64.9084C29.5484 64.54 29.18 64.0417 28.9417 63.3917L55.2883 37.045C56.285 36.0484 57.6934 35.5934 59.0584 35.8317L61.2467 36.2C63.5433 36.59 65.0817 37.63 65.58 39.1467C66.0567 40.6634 65.4067 42.4184 63.76 44.065L58.5167 49.33Z" fill="url(#paint1_linear_147_1241)"/>
<rect x="1" y="1" width="86" height="86" rx="43" stroke="url(#paint2_linear_147_1241)" stroke-width="2"/>
<defs>
<linearGradient id="paint0_linear_147_1241" x1="65.7325" y1="65.4988" x2="16.2822" y2="56.9893" gradientUnits="userSpaceOnUse">
<stop stop-color="#00796D"/>
<stop offset="1" stop-color="#38C682"/>
</linearGradient>
<linearGradient id="paint1_linear_147_1241" x1="65.7325" y1="65.4988" x2="16.2822" y2="56.9893" gradientUnits="userSpaceOnUse">
<stop stop-color="#00796D"/>
<stop offset="1" stop-color="#38C682"/>
</linearGradient>
<linearGradient id="paint2_linear_147_1241" x1="88" y1="88" x2="-12.1105" y2="70.9" gradientUnits="userSpaceOnUse">
<stop stop-color="#00796D"/>
<stop offset="1" stop-color="#38C682"/>
</linearGradient>
</defs>
</svg>
